<?xml version="1.0" encoding="UTF-8" standalone="no"?>
<!-- Created with Inkscape (http://www.inkscape.org/) -->

<svg
   xmlns:dc="http://purl.org/dc/elements/1.1/"
   xmlns:cc="http://creativecommons.org/ns#"
   xmlns:rdf="http://www.w3.org/1999/02/22-rdf-syntax-ns#"
   xmlns:svg="http://www.w3.org/2000/svg"
   xmlns="http://www.w3.org/2000/svg"
   xmlns:sodipodi="http://sodipodi.sourceforge.net/DTD/sodipodi-0.dtd"
   xmlns:inkscape="http://www.inkscape.org/namespaces/inkscape"
   width="149.99811"
   height="68.683815"
   id="svg3412"
   version="1.1"
   inkscape:version="0.48.4 r9939"
   sodipodi:docname="weighted_graph.svg">
  <defs
     id="defs3414">
    <marker
       inkscape:stockid="Arrow1Lstart"
       orient="auto"
       refY="0.0"
       refX="0.0"
       id="Arrow1Lstart"
       style="overflow:visible">
      <path
         id="path3973"
         d="M 0.0,0.0 L 5.0,-5.0 L -12.5,0.0 L 5.0,5.0 L 0.0,0.0 z "
         style="fill-rule:evenodd;stroke:#000000;stroke-width:1.0pt;marker-start:none"
         transform="scale(0.8) translate(12.5,0)" />
    </marker>
    <marker
       inkscape:stockid="Arrow1Mstart"
       orient="auto"
       refY="0.0"
       refX="0.0"
       id="Arrow1Mstart"
       style="overflow:visible">
      <path
         id="path3778"
         d="M 0.0,0.0 L 5.0,-5.0 L -12.5,0.0 L 5.0,5.0 L 0.0,0.0 z "
         style="fill-rule:evenodd;stroke:#000000;stroke-width:1.0pt;marker-start:none"
         transform="scale(0.4) translate(10,0)" />
    </marker>
    <marker
       inkscape:stockid="Arrow1Mend"
       orient="auto"
       refY="0.0"
       refX="0.0"
       id="Arrow1Mend"
       style="overflow:visible;">
      <path
         id="path3781"
         d="M 0.0,0.0 L 5.0,-5.0 L -12.5,0.0 L 5.0,5.0 L 0.0,0.0 z "
         style="fill-rule:evenodd;stroke:#000000;stroke-width:1.0pt;marker-start:none;"
         transform="scale(0.4) rotate(180) translate(10,0)" />
    </marker>
    <marker
       inkscape:stockid="Arrow1Lend"
       orient="auto"
       refY="0.0"
       refX="0.0"
       id="Arrow1Lend"
       style="overflow:visible;">
      <path
         id="path3775"
         d="M 0.0,0.0 L 5.0,-5.0 L -12.5,0.0 L 5.0,5.0 L 0.0,0.0 z "
         style="fill-rule:evenodd;stroke:#000000;stroke-width:1.0pt;marker-start:none;"
         transform="scale(0.8) rotate(180) translate(12.5,0)" />
    </marker>
  </defs>
  <sodipodi:namedview
     id="base"
     pagecolor="#ffffff"
     bordercolor="#666666"
     borderopacity="1.0"
     inkscape:pageopacity="0.0"
     inkscape:pageshadow="2"
     inkscape:zoom="11.313708"
     inkscape:cx="84.169948"
     inkscape:cy="41.966465"
     inkscape:document-units="px"
     inkscape:current-layer="layer1"
     showgrid="false"
     fit-margin-top="0"
     fit-margin-left="0"
     fit-margin-right="0"
     fit-margin-bottom="0"
     inkscape:window-width="1920"
     inkscape:window-height="1176"
     inkscape:window-x="1920"
     inkscape:window-y="0"
     inkscape:window-maximized="1" />
  <metadata
     id="metadata3417">
    <rdf:RDF>
      <cc:Work
         rdf:about="">
        <dc:format>image/svg+xml</dc:format>
        <dc:type
           rdf:resource="http://purl.org/dc/dcmitype/StillImage" />
        <dc:title></dc:title>
      </cc:Work>
    </rdf:RDF>
  </metadata>
  <g
     inkscape:label="Layer 1"
     inkscape:groupmode="layer"
     id="layer1"
     transform="translate(-138.06765,-521.79467)">
    <path
       sodipodi:type="arc"
       style="fill:none;stroke:#000000;stroke-width:1;stroke-miterlimit:4;stroke-opacity:1;stroke-dasharray:none;stroke-dashoffset:0"
       id="path3420"
       sodipodi:cx="160.71428"
       sodipodi:cy="523.07648"
       sodipodi:rx="22.142857"
       sodipodi:ry="22.142857"
       d="m 182.85714,523.07648 c 0,12.22916 -9.9137,22.14285 -22.14286,22.14285 -12.22916,0 -22.14286,-9.91369 -22.14286,-22.14285 0,-12.22916 9.9137,-22.14286 22.14286,-22.14286 12.22916,0 22.14286,9.9137 22.14286,22.14286 z"
       transform="matrix(0.42277645,0,0,0.42277645,79.698077,341.41196)" />
    <path
       transform="matrix(0.42277645,0,0,0.42277645,115.52956,311.28915)"
       sodipodi:type="arc"
       style="fill:none;stroke:#000000;stroke-width:1;stroke-miterlimit:4;stroke-opacity:1;stroke-dasharray:none;stroke-dashoffset:0"
       id="path3420-1"
       sodipodi:cx="160.71428"
       sodipodi:cy="523.07648"
       sodipodi:rx="22.142857"
       sodipodi:ry="22.142857"
       d="m 182.85714,523.07648 c 0,12.22916 -9.9137,22.14285 -22.14286,22.14285 -12.22916,0 -22.14286,-9.91369 -22.14286,-22.14285 0,-12.22916 9.9137,-22.14286 22.14286,-22.14286 12.22916,0 22.14286,9.9137 22.14286,22.14286 z" />
    <path
       transform="matrix(0.42277645,0,0,0.42277645,166.99134,310.22148)"
       sodipodi:type="arc"
       style="fill:none;stroke:#000000;stroke-width:1;stroke-miterlimit:4;stroke-opacity:1;stroke-dasharray:none;stroke-dashoffset:0"
       id="path3420-7"
       sodipodi:cx="160.71428"
       sodipodi:cy="523.07648"
       sodipodi:rx="22.142857"
       sodipodi:ry="22.142857"
       d="m 182.85714,523.07648 c 0,12.22916 -9.9137,22.14285 -22.14286,22.14285 -12.22916,0 -22.14286,-9.91369 -22.14286,-22.14285 0,-12.22916 9.9137,-22.14286 22.14286,-22.14286 12.22916,0 22.14286,9.9137 22.14286,22.14286 z" />
    <path
       transform="matrix(0.42277645,0,0,0.42277645,143.50256,359.76145)"
       sodipodi:type="arc"
       style="fill:none;stroke:#000000;stroke-width:1;stroke-miterlimit:4;stroke-opacity:1;stroke-dasharray:none;stroke-dashoffset:0"
       id="path3420-4"
       sodipodi:cx="160.71428"
       sodipodi:cy="523.07648"
       sodipodi:rx="22.142857"
       sodipodi:ry="22.142857"
       d="m 182.85714,523.07648 c 0,12.22916 -9.9137,22.14285 -22.14286,22.14285 -12.22916,0 -22.14286,-9.91369 -22.14286,-22.14285 0,-12.22916 9.9137,-22.14286 22.14286,-22.14286 12.22916,0 22.14286,9.9137 22.14286,22.14286 z" />
    <path
       transform="matrix(0.42277645,0,0,0.42277645,210.55234,359.33438)"
       sodipodi:type="arc"
       style="fill:none;stroke:#000000;stroke-width:1;stroke-miterlimit:4;stroke-opacity:1;stroke-dasharray:none;stroke-dashoffset:0"
       id="path3420-0"
       sodipodi:cx="160.71428"
       sodipodi:cy="523.07648"
       sodipodi:rx="22.142857"
       sodipodi:ry="22.142857"
       d="m 182.85714,523.07648 c 0,12.22916 -9.9137,22.14285 -22.14286,22.14285 -12.22916,0 -22.14286,-9.91369 -22.14286,-22.14285 0,-12.22916 9.9137,-22.14286 22.14286,-22.14286 12.22916,0 22.14286,9.9137 22.14286,22.14286 z" />
    <path
       style="fill:none;stroke:#000000;stroke-width:0.412;stroke-linecap:butt;stroke-linejoin:miter;stroke-miterlimit:4;stroke-opacity:1;stroke-dasharray:none;marker-end:url(#Arrow1Lend)"
       d="m 153.5999,555.21195 22.06888,-16.04329"
       id="path4240"
       inkscape:connector-curvature="0" />
    <path
       style="fill:none;stroke:#000000;stroke-width:0.41754836000000001px;stroke-linecap:butt;stroke-linejoin:miter;stroke-opacity:1;marker-start:url(#Arrow1Lstart)"
       d="m 193.67431,532.22003 31.86773,-0.21354"
       id="path4242"
       inkscape:connector-curvature="0" />
    <path
       style="fill:none;stroke:#000000;stroke-width:0.41461482999999999px;stroke-linecap:butt;stroke-linejoin:miter;stroke-opacity:1;marker-end:url(#Arrow1Lend)"
       d="m 187.52885,540.75732 18.68641,31.53876"
       id="path4244"
       inkscape:connector-curvature="0" />
    <path
       style="fill:none;stroke:#000000;stroke-width:0.40879168999999999px;stroke-linecap:butt;stroke-linejoin:miter;stroke-opacity:1;marker-end:url(#Arrow1Lend)"
       d="m 217.63428,573.86621 15.07141,-32.41799"
       id="path4246"
       inkscape:connector-curvature="0" />
    <path
       style="fill:none;stroke:#000000;stroke-width:0.41600021999999998px;stroke-linecap:butt;stroke-linejoin:miter;stroke-opacity:1;marker-start:url(#Arrow1Lstart)"
       d="m 244.23624,535.7935 31.48977,35.72025"
       id="path4248"
       inkscape:connector-curvature="0" />
    <text
       xml:space="preserve"
       style="font-size:11px;font-style:normal;font-weight:normal;line-height:125%;letter-spacing:0px;word-spacing:0px;fill:#000000;fill-opacity:1;stroke:none;font-family:Sans"
       x="-196.92426"
       y="538.74536"
       id="text3088"
       sodipodi:linespacing="125%"
       transform="matrix(0.80990596,-0.58655974,0.58655974,0.80990596,0,0)"><tspan
         sodipodi:role="line"
         id="tspan3090"
         x="-196.92426"
         y="538.74536"
         style="font-size:10px">1.2</tspan></text>
    <text
       xml:space="preserve"
       style="font-size:11px;font-style:normal;font-weight:normal;line-height:125%;letter-spacing:0px;word-spacing:0px;fill:#000000;fill-opacity:1;stroke:none;font-family:Sans"
       x="209.38899"
       y="529.48688"
       id="text3088-9"
       sodipodi:linespacing="125%"
       transform="matrix(0.99996958,0.00780026,-0.00780026,0.99996958,0,0)"><tspan
         sodipodi:role="line"
         id="tspan3090-2"
         x="209.38899"
         y="529.48688"
         style="font-size:10px">2.3</tspan></text>
    <text
       xml:space="preserve"
       style="font-size:11px;font-style:normal;font-weight:normal;line-height:125%;letter-spacing:0px;word-spacing:0px;fill:#000000;fill-opacity:1;stroke:none;font-family:Sans"
       x="581.68677"
       y="162.44292"
       id="text3088-8"
       sodipodi:linespacing="125%"
       transform="matrix(0.65140224,0.75873257,-0.75873257,0.65140224,0,0)"><tspan
         sodipodi:role="line"
         id="tspan3090-7"
         x="581.68677"
         y="162.44292"
         style="font-size:10px">4.2</tspan></text>
    <text
       xml:space="preserve"
       style="font-size:11px;font-style:normal;font-weight:normal;line-height:125%;letter-spacing:0px;word-spacing:0px;fill:#000000;fill-opacity:1;stroke:none;font-family:Sans"
       x="568.64014"
       y="106.21328"
       id="text3088-2"
       sodipodi:linespacing="125%"
       transform="matrix(0.4992426,0.86646225,-0.86646225,0.4992426,0,0)"><tspan
         sodipodi:role="line"
         id="tspan3090-1"
         x="568.64014"
         y="106.21328"
         style="font-size:10px">0.1</tspan></text>
    <text
       xml:space="preserve"
       style="font-size:11px;font-style:normal;font-weight:normal;line-height:125%;letter-spacing:0px;word-spacing:0px;fill:#000000;fill-opacity:1;stroke:none;font-family:Sans"
       x="-422.97974"
       y="436.08182"
       id="text3088-3"
       sodipodi:linespacing="125%"
       transform="matrix(0.41591327,-0.90940429,0.90940429,0.41591327,0,0)"><tspan
         sodipodi:role="line"
         id="tspan3090-3"
         x="-422.97974"
         y="436.08182"
         style="font-size:10px">2.7</tspan></text>
  </g>
</svg>
